<?xml version="1.0" encoding="utf-8"?>
<!-- Generator: Adobe Illustrator 15.0.0, SVG Export Plug-In . SVG Version: 6.00 Build 0)  -->
<!DOCTYPE svg PUBLIC "-//W3C//DTD SVG 1.1//EN" "http://www.w3.org/Graphics/SVG/1.1/DTD/svg11.dtd">
<svg version="1.1" id="Layer_1" xmlns="http://www.w3.org/2000/svg" xmlns:xlink="http://www.w3.org/1999/xlink" x="0px" y="0px"
	 width="719.609px" height="281.739px" viewBox="0 0 719.609 281.739" enable-background="new 0 0 719.609 281.739"
	 xml:space="preserve">
<g>
	<defs>
		<rect id="SVGID_1_" width="719.609" height="281.739"/>
	</defs>
	<clipPath id="SVGID_2_">
		<use xlink:href="#SVGID_1_"  overflow="visible"/>
	</clipPath>
	<path clip-path="url(#SVGID_2_)" fill="#004080" d="M159.38,149.021c0,13.807-11.193,25-25,25c-13.807,0-25-11.193-25-25
		c0-13.807,11.193-25,25-25C148.187,124.021,159.38,135.213,159.38,149.021"/>
	<path clip-path="url(#SVGID_2_)" fill="#004080" d="M134.38,89.021c33.084,0,60,26.916,60,60s-26.916,60-60,60s-60-26.916-60-60
		S101.296,89.021,134.38,89.021 M134.38,74.021c-41.421,0-75,33.579-75,75s33.579,75,75,75c41.421,0,75-33.579,75-75
		S175.801,74.021,134.38,74.021"/>
	<path clip-path="url(#SVGID_2_)" fill="#004080" d="M134.38,39.021c29.382,0,57.005,11.442,77.782,32.218
		c20.776,20.777,32.218,48.4,32.218,77.782s-11.442,57.005-32.218,77.782c-20.777,20.775-48.4,32.218-77.782,32.218
		c-29.382,0-57.005-11.442-77.782-32.218c-20.776-20.777-32.218-48.4-32.218-77.782s11.442-57.005,32.218-77.782
		C77.375,50.462,104.998,39.021,134.38,39.021 M134.38,24.021c-69.036,0-125,55.964-125,125s55.964,125,125,125
		c69.036,0,125-55.964,125-125S203.416,24.021,134.38,24.021"/>
	<path clip-path="url(#SVGID_2_)" fill="#BF993A" d="M241.469,9.696h-13.311c-3.934,0-5.502,5.081-2.251,7.297
		c16.335,11.136,30.505,25.21,41.748,41.465c2.229,3.222,7.28,1.641,7.28-2.278V42.975V13.696c0-2.209-1.791-4-4-4H241.469z"/>
	<path clip-path="url(#SVGID_2_)" fill="#004080" d="M370.249,122.208h-47.581c0.65,11.801,8.451,18.956,19.891,18.956
		c11.57,0,18.98-6.025,20.41-6.904l5.2,6.904c-0.779,0.627-8.71,9.415-27.171,9.415c-18.33,0-30.941-12.302-30.941-31.258
		c0-18.831,14.171-30.882,31.332-30.882c17.16,0,29.25,11.8,29.25,28.497C370.64,119.194,370.249,122.208,370.249,122.208
		 M358.809,114.173c-0.13-6.654-5.33-17.073-17.811-17.073c-12.35,0-17.81,9.918-18.2,17.073H358.809z"/>
	<path clip-path="url(#SVGID_2_)" fill="#004080" d="M434.729,141.54c-1.819,1.758-8.189,9.039-24.7,9.039
		c-16.642,0-31.201-12.052-31.201-31.133c0-19.207,15.211-31.008,31.59-31.008c16.511,0,23.272,7.784,23.921,8.537l-4.42,8.788
		c-2.08-2.009-7.54-7.282-18.46-7.282s-20.021,8.034-20.021,20.588c0,12.554,8.19,21.216,20.15,21.216
		c12.091,0,18.721-7.532,18.721-7.532L434.729,141.54z"/>
	<path clip-path="url(#SVGID_2_)" fill="#004080" d="M473.336,150.578c-18.46,0-32.761-12.427-32.761-31.007
		c0-18.454,14.301-31.133,32.761-31.133c18.331,0,32.633,12.679,32.633,31.133C505.969,138.151,491.667,150.578,473.336,150.578
		 M473.336,98.23c-12.479,0-20.149,9.289-20.149,20.965c0,11.8,7.67,21.09,20.149,21.09c12.352,0,20.021-9.29,20.021-21.09
		C493.357,107.519,485.688,98.23,473.336,98.23"/>
	<path clip-path="url(#SVGID_2_)" fill="#BF993A" d="M552.637,100.615h-0.521c-1.169-0.502-3.379-1.255-6.759-1.255
		c-5.461,0-8.841,3.39-10.142,5.021c-1.17,1.633-3.77,6.277-3.77,15.065v29.752h-12.481v-59.63h12.481l-0.13,9.165h0.389
		c2.991-6.779,8.581-10.295,15.211-10.295c4.16,0,6.5,1.004,6.5,1.004L552.637,100.615z"/>
	<path clip-path="url(#SVGID_2_)" fill="#BF993A" d="M569.275,77.391c-4.812,0-8.191-3.139-8.191-7.406
		c0-4.268,3.38-7.407,8.191-7.407c4.68,0,8.059,3.139,8.059,7.407C577.334,74.252,573.955,77.391,569.275,77.391 M575.515,149.198
		h-12.479v-59.63h12.479V149.198z"/>
	<path clip-path="url(#SVGID_2_)" fill="#BF993A" d="M628.424,145.307c-4.289,3.39-10.01,5.271-17.159,5.271
		c-10.401,0-18.853-4.142-24.052-10.67l5.98-7.03c4.68,5.523,12.479,8.536,18.201,8.536c5.719,0,11.83-2.008,11.83-8.536
		c0-6.528-9.75-8.537-13.91-9.917c-4.161-1.382-5.591-1.632-8.451-3.138c-3.9-1.884-9.751-5.775-9.751-14.312
		c0-11.047,9.881-17.073,20.801-17.073c10.921,0,17.161,3.766,21.063,7.783l-5.201,7.407c-3.64-3.64-9.621-6.402-15.601-6.402
		s-9.881,2.511-9.881,7.406c0,4.896,5.981,7.03,12.092,8.913c3.38,1.13,5.72,1.883,8.319,2.888c2.47,1.004,5.33,2.511,7.15,4.268
		c2.341,2.134,4.939,5.649,4.939,11.048C634.794,137.523,632.454,142.042,628.424,145.307"/>
	<polygon clip-path="url(#SVGID_2_)" fill="#BF993A" points="702.914,149.198 688.353,149.198 667.162,120.325 660.013,126.853 
		660.013,149.198 647.661,149.198 647.661,62.579 660.013,62.579 660.013,113.42 685.232,89.568 699.794,89.568 675.612,112.039 	
		"/>
	<path clip-path="url(#SVGID_2_)" d="M316.596,209.238c-1.377,0-2.585-0.232-3.623-0.699c-1.038-0.467-1.837-1.114-2.397-1.943
		c-0.56-0.828-0.84-1.767-0.84-2.817c0-1.003,0.239-1.913,0.718-2.729c0.477-0.817,1.259-1.47,2.344-1.96s2.549-0.735,4.393-0.735
		h5.88v2.415h-5.739c-1.681,0-2.813,0.28-3.396,0.84c-0.583,0.561-0.875,1.237-0.875,2.03c0,0.91,0.361,1.64,1.085,2.188
		c0.723,0.548,1.727,0.821,3.01,0.821c1.26,0,2.363-0.279,3.307-0.84c0.946-0.56,1.628-1.377,2.048-2.45l0.665,2.311
		c-0.443,1.097-1.225,1.966-2.344,2.606C319.711,208.919,318.299,209.238,316.596,209.238 M322.686,209.028v-3.92l-0.175-0.734
		v-6.686c0-1.423-0.415-2.524-1.242-3.307c-0.829-0.782-2.071-1.173-3.728-1.173c-1.097,0-2.17,0.181-3.22,0.543
		c-1.05,0.361-1.937,0.845-2.66,1.452l-1.4-2.521c0.956-0.77,2.106-1.359,3.447-1.767c1.342-0.409,2.749-0.613,4.218-0.613
		c2.543,0,4.503,0.619,5.88,1.854c1.376,1.237,2.065,3.128,2.065,5.671v11.199H322.686z"/>
	<path clip-path="url(#SVGID_2_)" d="M365.561,190.304c1.492,0,2.813,0.292,3.955,0.875c1.144,0.583,2.035,1.471,2.678,2.659
		c0.641,1.191,0.963,2.695,0.963,4.517v10.675h-3.361v-10.29c0-1.797-0.42-3.151-1.259-4.061c-0.84-0.909-2.02-1.364-3.536-1.364
		c-1.12,0-2.099,0.232-2.939,0.699c-0.841,0.468-1.487,1.154-1.942,2.064c-0.454,0.911-0.683,2.042-0.683,3.396v9.556h-3.359v-10.29
		c0-1.797-0.415-3.151-1.243-4.061c-0.829-0.909-2.012-1.364-3.552-1.364c-1.097,0-2.066,0.232-2.906,0.699
		c-0.839,0.468-1.493,1.154-1.96,2.064c-0.466,0.911-0.7,2.042-0.7,3.396v9.556h-3.359v-18.55h3.22v4.934l-0.526-1.259
		c0.583-1.213,1.482-2.159,2.696-2.835c1.212-0.678,2.625-1.016,4.235-1.016c1.772,0,3.301,0.438,4.585,1.313
		c1.282,0.876,2.123,2.2,2.519,3.972l-1.365-0.559c0.561-1.423,1.54-2.567,2.941-3.431
		C362.061,190.736,363.694,190.304,365.561,190.304"/>
	<path clip-path="url(#SVGID_2_)" d="M387.576,209.238c-1.589,0-2.982-0.291-4.184-0.875c-1.202-0.583-2.135-1.476-2.8-2.678
		c-0.666-1.201-0.998-2.712-0.998-4.532v-10.675h3.361v10.29c0,1.82,0.437,3.185,1.312,4.095s2.106,1.365,3.693,1.365
		c1.166,0,2.181-0.239,3.045-0.717c0.863-0.479,1.526-1.178,1.995-2.101c0.466-0.922,0.7-2.035,0.7-3.343v-9.59h3.358v18.55h-3.184
		v-5.005l0.523,1.33c-0.605,1.238-1.516,2.194-2.729,2.87C390.457,208.9,389.092,209.238,387.576,209.238 M383.864,187.783
		l3.15-4.55h3.571l-3.885,4.55H383.864z M389.989,187.783l3.115-4.55h3.535l-3.813,4.55H389.989z"/>
	<path clip-path="url(#SVGID_2_)" d="M403.885,183.059h3.359v25.97h-3.359V183.059z M406.615,204.549l0.069-4.305l10.676-9.766h4.06
		l-8.189,8.05l-1.82,1.54L406.615,204.549z M418.06,209.028l-7.279-9.029l2.17-2.695l9.24,11.725H418.06z"/>
	<path clip-path="url(#SVGID_2_)" d="M433.04,209.239c-1.867,0-3.522-0.408-4.969-1.226c-1.448-0.815-2.591-1.941-3.431-3.378
		c-0.841-1.434-1.261-3.062-1.261-4.883c0-1.842,0.42-3.476,1.261-4.899c0.84-1.423,1.982-2.538,3.431-3.343
		c1.446-0.804,3.102-1.207,4.969-1.207c1.843,0,3.494,0.403,4.952,1.207c1.458,0.805,2.602,1.914,3.431,3.325
		c0.827,1.413,1.242,3.051,1.242,4.917c0,1.844-0.415,3.478-1.242,4.901c-0.829,1.424-1.973,2.544-3.431,3.359
		C436.534,208.831,434.883,209.239,433.04,209.239 M433.04,206.298c1.19,0,2.258-0.267,3.202-0.804
		c0.946-0.536,1.686-1.302,2.223-2.292c0.536-0.992,0.806-2.142,0.806-3.449c0-1.33-0.27-2.479-0.806-3.447
		c-0.537-0.968-1.276-1.721-2.223-2.258c-0.944-0.536-2.012-0.804-3.202-0.804c-1.189,0-2.252,0.268-3.185,0.804
		c-0.934,0.537-1.681,1.29-2.24,2.258c-0.561,0.969-0.839,2.117-0.839,3.447c0,1.308,0.278,2.457,0.839,3.449
		c0.56,0.99,1.307,1.756,2.24,2.292C430.788,206.031,431.851,206.298,433.04,206.298 M429.75,187.188c-0.49,0-0.91-0.169-1.26-0.508
		c-0.35-0.338-0.525-0.763-0.525-1.276c0-0.536,0.176-0.975,0.525-1.313c0.35-0.338,0.77-0.507,1.26-0.507s0.91,0.169,1.26,0.507
		c0.352,0.339,0.525,0.777,0.525,1.313c0,0.514-0.174,0.938-0.525,1.276C430.66,187.02,430.24,187.188,429.75,187.188
		 M436.26,187.188c-0.489,0-0.909-0.169-1.26-0.508c-0.349-0.338-0.524-0.763-0.524-1.276c0-0.536,0.176-0.975,0.524-1.313
		c0.351-0.338,0.771-0.507,1.26-0.507c0.49,0,0.91,0.169,1.261,0.507c0.35,0.339,0.524,0.777,0.524,1.313
		c0,0.514-0.175,0.938-0.524,1.276C437.17,187.02,436.75,187.188,436.26,187.188"/>
	<path clip-path="url(#SVGID_2_)" d="M455.405,209.238c-1.797,0-3.401-0.396-4.813-1.189s-2.524-1.902-3.343-3.325
		c-0.816-1.423-1.224-3.08-1.224-4.97c0-1.891,0.407-3.54,1.224-4.953c0.818-1.411,1.931-2.513,3.343-3.307s3.017-1.19,4.813-1.19
		c1.563,0,2.975,0.35,4.234,1.05c1.261,0.7,2.27,1.75,3.027,3.15c0.758,1.399,1.138,3.149,1.138,5.25c0,2.1-0.368,3.85-1.102,5.25
		c-0.736,1.399-1.733,2.456-2.994,3.168C458.45,208.883,457.015,209.238,455.405,209.238 M455.685,206.299
		c1.166,0,2.224-0.269,3.167-0.805c0.945-0.536,1.691-1.302,2.24-2.292c0.548-0.992,0.823-2.142,0.823-3.448
		c0-1.33-0.275-2.479-0.823-3.448c-0.549-0.967-1.295-1.72-2.24-2.257c-0.943-0.537-2.001-0.805-3.167-0.805
		c-1.189,0-2.252,0.268-3.186,0.805c-0.932,0.537-1.679,1.29-2.239,2.257c-0.56,0.969-0.84,2.118-0.84,3.448
		c0,1.307,0.28,2.456,0.84,3.448c0.561,0.99,1.308,1.756,2.239,2.292C453.433,206.03,454.495,206.299,455.685,206.299
		 M462.02,209.028v-5.005l0.211-4.305l-0.351-4.305v-12.355h3.36v25.97H462.02z"/>
	<path clip-path="url(#SVGID_2_)" d="M480.289,209.238c-1.982,0-3.727-0.408-5.231-1.225s-2.672-1.937-3.5-3.36
		c-0.829-1.423-1.242-3.057-1.242-4.899c0-1.844,0.401-3.478,1.207-4.9c0.804-1.423,1.913-2.538,3.325-3.342
		c1.41-0.805,3.004-1.207,4.776-1.207c1.797,0,3.383,0.396,4.761,1.188c1.377,0.794,2.455,1.907,3.236,3.344
		c0.782,1.434,1.173,3.108,1.173,5.021c0,0.141-0.006,0.304-0.017,0.49c-0.012,0.187-0.03,0.362-0.053,0.525H472.94v-2.415h14.034
		l-1.364,0.84c0.021-1.19-0.223-2.251-0.736-3.186c-0.514-0.933-1.22-1.662-2.117-2.187c-0.897-0.526-1.941-0.788-3.133-0.788
		c-1.167,0-2.205,0.262-3.114,0.788c-0.91,0.524-1.622,1.259-2.136,2.205c-0.514,0.944-0.77,2.023-0.77,3.236v0.562
		c0,1.236,0.286,2.338,0.857,3.306c0.571,0.969,1.37,1.723,2.398,2.258c1.026,0.537,2.205,0.806,3.534,0.806
		c1.096,0,2.094-0.187,2.993-0.561c0.896-0.373,1.685-0.933,2.361-1.68l1.855,2.17c-0.84,0.98-1.884,1.727-3.132,2.241
		C483.224,208.981,481.829,209.238,480.289,209.238 M476.964,187.783l4.761-4.55h4.27l-5.88,4.55H476.964z"/>
	<path clip-path="url(#SVGID_2_)" d="M499.188,209.238c-1.54,0-3.004-0.21-4.393-0.63c-1.387-0.42-2.479-0.932-3.272-1.54l1.4-2.66
		c0.793,0.537,1.774,0.992,2.941,1.365c1.166,0.373,2.355,0.561,3.568,0.561c1.563,0,2.69-0.222,3.378-0.665
		c0.688-0.443,1.032-1.063,1.032-1.855c0-0.583-0.21-1.038-0.63-1.365c-0.42-0.325-0.974-0.57-1.663-0.734
		c-0.687-0.162-1.452-0.31-2.292-0.438c-0.84-0.128-1.679-0.291-2.519-0.488c-0.842-0.198-1.611-0.479-2.312-0.841
		s-1.26-0.862-1.679-1.506c-0.42-0.64-0.63-1.499-0.63-2.571c0-1.12,0.313-2.101,0.943-2.94c0.631-0.84,1.522-1.488,2.679-1.943
		c1.154-0.454,2.524-0.682,4.111-0.682c1.213,0,2.444,0.146,3.692,0.438s2.27,0.706,3.063,1.242l-1.436,2.66
		c-0.839-0.56-1.714-0.945-2.625-1.155c-0.91-0.21-1.82-0.314-2.729-0.314c-1.471,0-2.567,0.24-3.289,0.717
		c-0.725,0.479-1.086,1.091-1.086,1.838c0,0.63,0.216,1.114,0.647,1.452c0.431,0.339,0.992,0.602,1.68,0.788
		c0.688,0.187,1.452,0.344,2.292,0.472c0.842,0.129,1.681,0.292,2.521,0.49c0.839,0.199,1.603,0.473,2.291,0.823
		c0.688,0.35,1.249,0.84,1.68,1.47c0.433,0.63,0.648,1.47,0.648,2.521c0,1.119-0.327,2.089-0.98,2.904
		c-0.652,0.818-1.575,1.452-2.764,1.907C502.269,209.011,500.846,209.238,499.188,209.238"/>
	<path clip-path="url(#SVGID_2_)" d="M526.979,209.238c-1.539,0-3.005-0.21-4.393-0.63s-2.479-0.932-3.271-1.54l1.399-2.66
		c0.793,0.537,1.773,0.992,2.94,1.365s2.355,0.561,3.569,0.561c1.563,0,2.69-0.222,3.378-0.665c0.688-0.443,1.032-1.063,1.032-1.855
		c0-0.583-0.21-1.038-0.63-1.365c-0.42-0.325-0.974-0.57-1.663-0.734c-0.688-0.162-1.452-0.31-2.292-0.438
		c-0.84-0.128-1.68-0.291-2.52-0.488c-0.84-0.198-1.61-0.479-2.311-0.841s-1.26-0.862-1.679-1.506
		c-0.421-0.64-0.631-1.499-0.631-2.571c0-1.12,0.314-2.101,0.944-2.94c0.631-0.84,1.522-1.488,2.679-1.943
		c1.154-0.454,2.524-0.682,4.111-0.682c1.214,0,2.444,0.146,3.692,0.438s2.27,0.706,3.063,1.242l-1.436,2.66
		c-0.839-0.56-1.714-0.945-2.625-1.155c-0.91-0.21-1.82-0.314-2.729-0.314c-1.471,0-2.567,0.24-3.29,0.717
		c-0.725,0.479-1.085,1.091-1.085,1.838c0,0.63,0.216,1.114,0.646,1.452c0.432,0.339,0.993,0.602,1.681,0.788
		c0.688,0.187,1.452,0.344,2.292,0.472c0.841,0.129,1.681,0.292,2.521,0.49c0.839,0.199,1.603,0.473,2.291,0.823
		c0.689,0.35,1.249,0.84,1.68,1.47c0.433,0.63,0.648,1.47,0.648,2.521c0,1.119-0.327,2.089-0.98,2.904
		c-0.652,0.818-1.574,1.452-2.764,1.907C530.059,209.011,528.635,209.238,526.979,209.238"/>
	<polygon clip-path="url(#SVGID_2_)" points="537.83,209.028 537.83,206.858 549.729,192.089 550.394,193.244 538.039,193.244 
		538.039,190.479 553.09,190.479 553.09,192.684 541.188,207.419 540.42,206.264 553.369,206.264 553.369,209.028 	"/>
	<path clip-path="url(#SVGID_2_)" d="M563.693,209.238c-1.377,0-2.585-0.232-3.623-0.699s-1.837-1.114-2.396-1.943
		c-0.561-0.828-0.84-1.767-0.84-2.817c0-1.003,0.238-1.913,0.718-2.729c0.477-0.817,1.259-1.47,2.344-1.96s2.549-0.735,4.394-0.735
		h5.88v2.415h-5.74c-1.68,0-2.813,0.28-3.396,0.84c-0.584,0.561-0.875,1.237-0.875,2.03c0,0.91,0.361,1.64,1.086,2.188
		c0.723,0.548,1.727,0.821,3.01,0.821c1.259,0,2.361-0.279,3.307-0.84c0.946-0.56,1.628-1.377,2.048-2.45l0.665,2.311
		c-0.443,1.097-1.225,1.966-2.345,2.606C566.808,208.919,565.396,209.238,563.693,209.238 M569.783,209.028v-3.92l-0.175-0.734
		v-6.686c0-1.423-0.415-2.524-1.243-3.307c-0.827-0.782-2.069-1.173-3.728-1.173c-1.096,0-2.169,0.181-3.219,0.543
		c-1.05,0.361-1.938,0.845-2.66,1.452l-1.4-2.521c0.956-0.77,2.106-1.359,3.447-1.767c1.342-0.409,2.748-0.613,4.218-0.613
		c2.543,0,4.503,0.619,5.88,1.854c1.376,1.237,2.065,3.128,2.065,5.671v11.199H569.783z"/>
	<path clip-path="url(#SVGID_2_)" d="M579.617,183.059h3.36v25.97h-3.36V183.059z M582.349,204.549l0.07-4.305l10.675-9.766h4.059
		l-8.188,8.05l-1.82,1.54L582.349,204.549z M593.794,209.028l-7.28-9.029l2.17-2.695l9.24,11.725H593.794z"/>
	<path clip-path="url(#SVGID_2_)" d="M609.088,209.238c-1.982,0-3.727-0.408-5.231-1.225c-1.506-0.816-2.673-1.937-3.5-3.36
		c-0.829-1.423-1.243-3.057-1.243-4.899c0-1.844,0.402-3.478,1.208-4.9c0.804-1.423,1.913-2.538,3.325-3.342
		c1.41-0.805,3.004-1.207,4.776-1.207c1.796,0,3.384,0.396,4.761,1.188c1.376,0.794,2.455,1.907,3.236,3.344
		c0.781,1.434,1.173,3.108,1.173,5.021c0,0.141-0.006,0.304-0.017,0.49c-0.012,0.187-0.03,0.362-0.053,0.525h-15.785v-2.415h14.035
		l-1.365,0.84c0.023-1.19-0.222-2.251-0.735-3.186c-0.514-0.933-1.22-1.662-2.118-2.187c-0.897-0.526-1.941-0.788-3.132-0.788
		c-1.167,0-2.205,0.262-3.114,0.788c-0.91,0.524-1.622,1.259-2.136,2.205c-0.514,0.944-0.77,2.023-0.77,3.236v0.562
		c0,1.236,0.286,2.338,0.856,3.306c0.572,0.969,1.371,1.723,2.398,2.258c1.026,0.537,2.205,0.806,3.535,0.806
		c1.096,0,2.093-0.187,2.993-0.561c0.896-0.373,1.684-0.933,2.361-1.68l1.855,2.17c-0.84,0.98-1.885,1.727-3.132,2.241
		C612.022,208.981,610.628,209.238,609.088,209.238 M605.764,187.783l4.76-4.55h4.27l-5.881,4.55H605.764z"/>
	<path clip-path="url(#SVGID_2_)" d="M622.668,209.028v-18.55h3.221v5.04l-0.316-1.26c0.514-1.283,1.377-2.263,2.59-2.94
		c1.213-0.677,2.707-1.015,4.481-1.015v3.255c-0.142-0.022-0.275-0.035-0.403-0.035h-0.368c-1.797,0-3.22,0.537-4.269,1.61
		c-1.05,1.074-1.576,2.625-1.576,4.655v9.239H622.668z"/>
	<path clip-path="url(#SVGID_2_)" d="M635.303,190.479h11.83v2.766h-11.83V190.479z M644.331,209.238
		c-1.866,0-3.313-0.501-4.34-1.505c-1.026-1.003-1.54-2.438-1.54-4.305v-17.01h3.36v16.87c0,1.004,0.25,1.772,0.752,2.31
		s1.22,0.805,2.154,0.805c1.05,0,1.925-0.291,2.625-0.875l1.05,2.415c-0.514,0.443-1.126,0.771-1.838,0.98
		C645.843,209.135,645.103,209.238,644.331,209.238"/>
	<path clip-path="url(#SVGID_2_)" d="M660.188,209.238c-1.868,0-3.524-0.408-4.97-1.225c-1.447-0.816-2.591-1.942-3.431-3.377
		c-0.841-1.436-1.261-3.063-1.261-4.883c0-1.844,0.42-3.478,1.261-4.9c0.84-1.423,1.983-2.538,3.431-3.342
		c1.445-0.805,3.102-1.207,4.97-1.207c1.842,0,3.494,0.402,4.952,1.207c1.458,0.804,2.601,1.914,3.43,3.325
		c0.829,1.412,1.243,3.051,1.243,4.917c0,1.843-0.414,3.477-1.243,4.899c-0.829,1.424-1.972,2.544-3.43,3.36
		S662.029,209.238,660.188,209.238 M660.188,206.299c1.189,0,2.257-0.269,3.202-0.806c0.944-0.535,1.685-1.301,2.222-2.292
		c0.538-0.991,0.806-2.141,0.806-3.447c0-1.33-0.268-2.479-0.806-3.448c-0.537-0.967-1.277-1.72-2.222-2.257
		c-0.945-0.536-2.013-0.806-3.202-0.806c-1.19,0-2.252,0.27-3.186,0.806c-0.934,0.537-1.681,1.29-2.239,2.257
		c-0.562,0.969-0.84,2.118-0.84,3.448c0,1.307,0.278,2.456,0.84,3.447c0.559,0.991,1.306,1.757,2.239,2.292
		C657.936,206.03,658.997,206.299,660.188,206.299 M655.673,187.783l3.148-4.55h3.571l-3.885,4.55H655.673z M661.798,187.783
		l3.114-4.55h3.534l-3.813,4.55H661.798z"/>
	<path clip-path="url(#SVGID_2_)" d="M672.507,216.028c-0.771,0-1.51-0.094-2.224-0.279c-0.711-0.188-1.313-0.468-1.802-0.841
		l1.085-2.59c0.7,0.583,1.61,0.875,2.73,0.875c0.886,0,1.568-0.273,2.048-0.822c0.477-0.549,0.717-1.358,0.717-2.433v-19.46h3.36
		v19.39c0,1.892-0.507,3.39-1.523,4.498C675.885,215.474,674.42,216.028,672.507,216.028 M676.742,186.908
		c-0.653,0-1.196-0.21-1.629-0.63c-0.432-0.42-0.646-0.932-0.646-1.54c0-0.63,0.215-1.154,0.646-1.575
		c0.433-0.42,0.976-0.63,1.629-0.63c0.652,0,1.194,0.205,1.628,0.612c0.431,0.409,0.646,0.916,0.646,1.523
		c0,0.63-0.21,1.16-0.63,1.593C677.967,186.692,677.419,186.908,676.742,186.908"/>
	<path clip-path="url(#SVGID_2_)" d="M693.508,209.238c-1.983,0-3.729-0.407-5.232-1.225c-1.506-0.816-2.673-1.936-3.5-3.36
		c-0.83-1.423-1.244-3.057-1.244-4.899s0.403-3.478,1.208-4.9s1.914-2.538,3.326-3.343c1.411-0.804,3.004-1.207,4.776-1.207
		c1.797,0,3.384,0.396,4.761,1.19c1.376,0.794,2.455,1.906,3.236,3.343c0.781,1.434,1.174,3.108,1.174,5.021
		c0,0.141-0.007,0.305-0.019,0.49c-0.011,0.188-0.029,0.362-0.052,0.525h-15.786v-2.415h14.036l-1.366,0.84
		c0.024-1.19-0.221-2.251-0.734-3.186c-0.514-0.933-1.22-1.661-2.117-2.188c-0.899-0.525-1.943-0.787-3.133-0.787
		c-1.166,0-2.204,0.262-3.114,0.787c-0.91,0.526-1.622,1.26-2.136,2.206c-0.514,0.945-0.771,2.023-0.771,3.237v0.56
		c0,1.237,0.287,2.339,0.858,3.307c0.571,0.97,1.371,1.723,2.396,2.259c1.027,0.536,2.205,0.805,3.535,0.805
		c1.097,0,2.094-0.187,2.994-0.561c0.896-0.373,1.684-0.933,2.361-1.68l1.854,2.17c-0.839,0.98-1.884,1.728-3.131,2.24
		C696.441,208.981,695.047,209.238,693.508,209.238"/>
</g>
</svg>
