<?xml version="1.0" encoding="utf-8"?>
<!-- Generator: Adobe Illustrator 26.1.0, SVG Export Plug-In . SVG Version: 6.00 Build 0)  -->
<svg version="1.1" id="Ebene_1" xmlns="http://www.w3.org/2000/svg" xmlns:xlink="http://www.w3.org/1999/xlink" x="0px" y="0px"
	 viewBox="0 0 836.9 534" style="enable-background:new 0 0 836.9 534;" xml:space="preserve">
<style type="text/css">
	.st0{fill:#FFFFFF;}
	.st1{fill:#C41315;}
	.st2{fill:#3C3C3B;}
</style>
<polygon class="st0" points="836.9,534 0,429 0,0 836.9,0 "/>
<g>
	<g>
		<path class="st1" d="M140.4,305h45.8h2.7v2.7v10.5v2.7h-2.7h-37.2c-17.8,0-29.7-9.6-29.7-23.9c0-14,12.8-24.6,29.7-24.6H200
			l18.9-24.7h-69.8c-35.2,0-59.8,19.6-59.8,47.6c0,13.6,6,26.1,16.8,35.3c11,9.3,26.3,14.4,43,14.4h69.7v-60.3h-61.5L140.4,305z"/>
		<g>
			<path class="st1" d="M352.7,294.1c-6.1-4.4-15.1-6.6-27-6.6h-58.1c-8.1,0-9.8-4.2-9.8-7.7c0-5,3.3-7.6,9.8-7.6h69.6l18.8-24.7
				H271c-14.9,0-25.9,2.7-32.8,8.1c-6.3,4.9-9.4,12.1-9.4,22c0,17.5,12.8,27.1,35.9,27.1h57.9c9.1,0,10.1,5.6,10.1,8s-1,8-9.8,8H247
				l-18.8,24.2h94.2c14.6,0,24.7-2.8,31-8.5c5.5-5.1,8.1-12.6,8.1-23.2C361.5,304.7,358.6,298.3,352.7,294.1z"/>
		</g>
		<path class="st1" d="M492.6,294.1c-6.1-4.4-15.1-6.6-27-6.6h-58.1c-8.1,0-9.8-4.2-9.8-7.7c0-5,3.3-7.6,9.8-7.6h69.6l18.8-24.7
			h-84.9c-14.9,0-25.9,2.7-32.8,8.1c-6.3,4.9-9.4,12.1-9.4,22c0,17.5,12.8,27.1,35.9,27.1h57.9c9.1,0,10.1,5.6,10.1,8s-1,8-9.8,8
			H387l-18.8,24.2h94.2c14.6,0,24.7-2.8,31-8.5c5.5-5.1,8.1-12.6,8.1-23.2C501.4,304.7,498.5,298.3,492.6,294.1z"/>
		<g>
			<path class="st1" d="M583.8,245.7c-8.3,0-14.9,3.8-20.7,12l-62.5,87.2h35.4l45-62.7l2.2-3.1l2.1,3.1l27.1,38.6l-40.6-0.2
				l-17.6,24.2H665l-60.7-87.1C598.7,249.5,592.2,245.7,583.8,245.7z"/>
		</g>
	</g>
	<polygon class="st1" points="711.6,291.4 666.1,291.4 634.6,245.3 680,245.3 	"/>
	<polygon class="st2" points="747.6,344.9 702,344.9 670.6,298.8 716.1,298.8 	"/>
</g>
</svg>
