<svg xmlns="http://www.w3.org/2000/svg" xmlns:xlink="http://www.w3.org/1999/xlink" viewBox="0 0 287.41 96.75"><defs><style>.cls-1{fill:url(#Degradado_sin_nombre_5);}.cls-2{fill:#8f8f8f;}.cls-3{fill:url(#Degradado_sin_nombre_5-2);}.cls-4{fill:url(#Degradado_sin_nombre_7);}.cls-5{fill:url(#Degradado_sin_nombre_9);}.cls-6{fill:url(#Degradado_sin_nombre_4);}.cls-7{fill:url(#Degradado_sin_nombre_6);}.cls-8{fill:#a3110a;}.cls-9{fill:url(#Degradado_sin_nombre_4-2);}.cls-10{fill:url(#Degradado_sin_nombre_8);}.cls-11{fill:url(#Degradado_sin_nombre_4-3);}.cls-12{fill:#a5110a;}</style><linearGradient id="Degradado_sin_nombre_5" x1="18.1" y1="16.09" x2="84.28" y2="86.66" gradientUnits="userSpaceOnUse"><stop offset="0" stop-color="#d3d3d3"/><stop offset="1"/></linearGradient><linearGradient id="Degradado_sin_nombre_5-2" x1="81.03" y1="82.49" x2="24.53" y2="23.47" xlink:href="#Degradado_sin_nombre_5"/><linearGradient id="Degradado_sin_nombre_7" x1="54.01" y1="35.39" x2="81.03" y2="48.67" gradientUnits="userSpaceOnUse"><stop offset="0.15" stop-color="#c36b66"/><stop offset="0.47" stop-color="#a5110a"/><stop offset="0.5" stop-color="#860e08"/><stop offset="0.56" stop-color="#3e0604"/><stop offset="0.6" stop-color="#110201"/><stop offset="0.63"/></linearGradient><linearGradient id="Degradado_sin_nombre_9" x1="28.37" y1="46.96" x2="62.75" y2="64.78" gradientUnits="userSpaceOnUse"><stop offset="0" stop-color="#c36b66"/><stop offset="0.8" stop-color="#a5110a"/><stop offset="0.82" stop-color="#860e08"/><stop offset="0.87" stop-color="#3e0604"/><stop offset="0.91" stop-color="#110201"/><stop offset="0.93"/></linearGradient><linearGradient id="Degradado_sin_nombre_4" x1="62.22" y1="23.84" x2="61.95" y2="58.09" gradientUnits="userSpaceOnUse"><stop offset="0.16" stop-color="#c36b66"/><stop offset="0.2" stop-color="#a5110a"/><stop offset="0.22" stop-color="#860e08"/><stop offset="0.28" stop-color="#3e0604"/><stop offset="0.32" stop-color="#110201"/><stop offset="0.34"/></linearGradient><linearGradient id="Degradado_sin_nombre_6" x1="-374.85" y1="325.19" x2="-407.38" y2="339.52" gradientTransform="matrix(0.59, 0.36, 0.35, 1.11, 169.74, -185.59)" gradientUnits="userSpaceOnUse"><stop offset="0.16" stop-color="#c36b66"/><stop offset="0.34" stop-color="#a5110a"/><stop offset="0.39" stop-color="#860e08"/><stop offset="0.51" stop-color="#3e0604"/><stop offset="0.6" stop-color="#110201"/><stop offset="0.64"/></linearGradient><linearGradient id="Degradado_sin_nombre_4-2" x1="51.88" y1="45.15" x2="29.69" y2="56.18" xlink:href="#Degradado_sin_nombre_4"/><linearGradient id="Degradado_sin_nombre_8" x1="105.64" y1="-99.45" x2="64.38" y2="-98.93" gradientTransform="matrix(0.88, -0.48, 0.6, 1.08, 12.78, 206.9)" gradientUnits="userSpaceOnUse"><stop offset="0.16" stop-color="#c36b66"/><stop offset="0.25" stop-color="#a5110a"/><stop offset="0.28" stop-color="#750c07"/><stop offset="0.32" stop-color="#360603"/><stop offset="0.35" stop-color="#0f0201"/><stop offset="0.36"/></linearGradient><linearGradient id="Degradado_sin_nombre_4-3" x1="29.79" y1="25.97" x2="29.93" y2="46.58" xlink:href="#Degradado_sin_nombre_4"/></defs><g id="Capa_2" data-name="Capa 2"><g id="Capa_1-2" data-name="Capa 1"><path d="M144.51,19.44,127.65,58.13h-7.07L103.66,19.44h7.8l12.88,29.85,13-29.85Z"/><path d="M149.32,19.44h7.19V58.13h-7.19Z"/><path d="M167.67,19.44h7.19V52.05h20.23v6.08H167.67Z"/><path d="M226.87,49.18H207.52l-3.81,9H196.3l17.41-38.69h7.08l17.47,38.69h-7.52Zm-2.38-5.64L217.2,26.63,210,43.54Z"/><path d="M249.81,25.52H237V19.44h32.84v6.08H257V58.13h-7.18Z"/><path d="M276,19.44h7.19V58.13H276Z"/><path class="cls-1" d="M48.37,0A48.38,48.38,0,1,0,96.75,48.37,48.38,48.38,0,0,0,48.37,0Zm0,95.5A47.13,47.13,0,1,1,95.5,48.37,47.13,47.13,0,0,1,48.37,95.5Z"/><path class="cls-2" d="M48.37,1.24A47.13,47.13,0,1,0,95.5,48.37,47.13,47.13,0,0,0,48.37,1.24Zm0,88A40.86,40.86,0,1,1,89.23,48.37,40.85,40.85,0,0,1,48.37,89.23Z"/><path class="cls-2" d="M48.37,7.52A40.86,40.86,0,1,0,89.23,48.37,40.85,40.85,0,0,0,48.37,7.52Zm0,80.66A39.81,39.81,0,1,1,88.18,48.37,39.8,39.8,0,0,1,48.37,88.18Z"/><path class="cls-3" d="M48.37,7.52A40.86,40.86,0,1,0,89.23,48.37,40.85,40.85,0,0,0,48.37,7.52Zm0,80.66A39.81,39.81,0,1,1,88.18,48.37,39.8,39.8,0,0,1,48.37,88.18Z"/><polygon class="cls-4" points="48.63 28.33 47.13 28.34 61.82 57.76 77.24 28.27 48.63 28.33"/><polygon class="cls-5" points="19.51 28.4 48.98 82.33 58.23 64.64 40.12 28.35 19.51 28.4"/><polyline class="cls-6" points="47.13 28.34 61.8 37.14 77.24 28.27"/><polygon class="cls-7" points="61.82 57.76 54.56 43.12 47.13 28.35 63.27 37.99 62.32 48.48 61.82 57.76"/><polygon class="cls-8" points="50.9 29.8 49.65 29.81 61.91 54.36 74.77 29.75 50.9 29.8"/><polyline class="cls-9" points="58.23 64.64 45.21 64.13 33.45 36.5 40.12 28.35"/><polygon class="cls-10" points="50.27 70.14 48.98 82.33 19.51 28.4 28.45 32.82 50.27 70.14"/><polyline class="cls-11" points="40.12 28.35 33.45 36.5 19.51 28.4"/><polygon class="cls-12" points="21.97 29.79 48.9 79.07 56.48 64.58 39 29.75 21.97 29.79"/><path d="M124,86.27h2.6v7.4a10.1,10.1,0,0,1-3.28,1.79,12.39,12.39,0,0,1-3.9.62,10.62,10.62,0,0,1-5.18-1.26,9.34,9.34,0,0,1-3.61-3.47,9.5,9.5,0,0,1-1.32-5,9.59,9.59,0,0,1,1.32-5,9.12,9.12,0,0,1,3.63-3.47,10.81,10.81,0,0,1,5.21-1.24,11,11,0,0,1,4.14.74,8.53,8.53,0,0,1,3.15,2.18L125,81.28a7.63,7.63,0,0,0-5.5-2.19,8.07,8.07,0,0,0-3.89.93A6.89,6.89,0,0,0,113,82.63a7.61,7.61,0,0,0,0,7.47,6.91,6.91,0,0,0,2.69,2.62,7.92,7.92,0,0,0,3.87,1A8.08,8.08,0,0,0,124,92.45Z"/><path d="M139,89.31v6.55h-2.68V89.25l-7.54-12.36h2.9l6.07,10,6.1-10h2.68Z"/><path d="M160.22,91.12H150.14l-2.09,4.74h-2.79l8.59-19h2.69l8.61,19h-2.84ZM159.27,89l-4.09-9.29L151.09,89Zm-2.41-17.12h3.31l-4.56,3.52h-2.43Z"/><path d="M180.66,95.86,176.56,90c-.5,0-.9,0-1.19,0h-4.69v5.77H168v-19h7.4a8.81,8.81,0,0,1,5.8,1.76,6,6,0,0,1,2.11,4.86,6.37,6.37,0,0,1-1.08,3.74,6.1,6.1,0,0,1-3.09,2.25l4.5,6.36Zm-1.44-9.18a3.87,3.87,0,0,0,1.35-3.17,3.83,3.83,0,0,0-1.35-3.16,6.11,6.11,0,0,0-3.93-1.1h-4.61v8.54h4.61A6.06,6.06,0,0,0,179.22,86.68Z"/><path d="M191.17,79.25h-6.5V76.89h15.69v2.36h-6.51V95.86h-2.68Z"/><path d="M206.43,94.82a9.32,9.32,0,0,1-3.62-3.48,10,10,0,0,1,0-9.92,9.32,9.32,0,0,1,3.62-3.48,11.2,11.2,0,0,1,10.32,0,9.2,9.2,0,0,1,3.61,3.47,10.15,10.15,0,0,1,0,9.94,9.27,9.27,0,0,1-3.61,3.47,11.2,11.2,0,0,1-10.32,0Zm8.93-2.1A6.89,6.89,0,0,0,218,90.1a7.71,7.71,0,0,0,0-7.45A6.94,6.94,0,0,0,215.36,80a7.36,7.36,0,0,0-3.75-1,7.54,7.54,0,0,0-3.79,1,6.92,6.92,0,0,0-2.65,2.61,7.71,7.71,0,0,0,0,7.45,6.88,6.88,0,0,0,2.65,2.62,7.64,7.64,0,0,0,3.79,1A7.47,7.47,0,0,0,215.36,92.72Zm-2.1-20.89h3.3L212,75.35h-2.44Z"/><path d="M247.27,93.51v2.35H231.42V94l11.92-14.77H231.61V76.89h15.31v1.85L235.05,93.51Z"/><path d="M263.59,95.86,259.49,90c-.5,0-.9,0-1.19,0h-4.69v5.77H250.9v-19h7.4a8.81,8.81,0,0,1,5.8,1.76,6,6,0,0,1,2.11,4.86,6.37,6.37,0,0,1-1.08,3.74A6.1,6.1,0,0,1,262,89.5l4.5,6.36Zm-1.44-9.18a3.87,3.87,0,0,0,1.35-3.17,3.83,3.83,0,0,0-1.35-3.16,6.11,6.11,0,0,0-3.93-1.1h-4.61v8.54h4.61A6.06,6.06,0,0,0,262.15,86.68Z"/><path d="M274.1,79.25h-6.5V76.89h15.69v2.36h-6.51V95.86H274.1Z"/><path d="M284.32,95.5a1.79,1.79,0,0,1-.54-1.34,1.76,1.76,0,0,1,.54-1.32,1.8,1.8,0,0,1,1.3-.53,1.74,1.74,0,0,1,1.27.52,1.8,1.8,0,0,1,.52,1.33,1.82,1.82,0,0,1-.53,1.34,1.72,1.72,0,0,1-1.26.53A1.8,1.8,0,0,1,284.32,95.5Z"/></g></g></svg>